<svg width="20" height="21" viewBox="0 0 20 21" fill="none" xmlns="http://www.w3.org/2000/svg">
<path d="M3.04688 9.8457L9.5293 17.3164C9.5879 17.384 9.66034 17.4382 9.74172 17.4754C9.8231 17.5125 9.91152 17.5318 10.001 17.5318C10.0904 17.5318 10.1789 17.5125 10.2602 17.4754C10.3416 17.4382 10.4141 17.384 10.4727 17.3164L16.9531 9.8457C16.9727 9.82319 16.9854 9.79551 16.9897 9.76598C16.994 9.73645 16.9897 9.70631 16.9774 9.67914C16.965 9.65197 16.9451 9.62893 16.9201 9.61275C16.895 9.59657 16.8658 9.58794 16.8359 9.58789L15.2539 9.58789C15.1641 9.58789 15.0781 9.62695 15.0176 9.69531L10.7422 14.623L10.7422 3.625C10.7422 3.53906 10.6719 3.46875 10.5859 3.46875L9.41407 3.46875C9.32813 3.46875 9.25782 3.53906 9.25782 3.625L9.25782 14.623L4.98243 9.69531C4.92383 9.62695 4.8379 9.58789 4.7461 9.58789L3.16407 9.58789C3.03126 9.58789 2.95899 9.74414 3.04688 9.8457Z" fill="#FFE170"/>
</svg>
