<svg width="111" height="49" viewBox="0 0 111 49" fill="none" xmlns="http://www.w3.org/2000/svg">
<path d="M68.1623 24.9348C71.7624 21.5373 75.0766 17.9102 78.1479 14.0308C79.8362 11.8977 81.4305 9.27307 84.0265 8.16905C87.2508 6.79749 90.4533 8.25288 93.4007 9.64055C97.7497 11.689 101.748 14.4974 105.182 17.8497C106.034 18.6806 106.93 19.4816 107.613 20.4551C109.173 22.6816 109.372 25.2692 107.3 26.2943C105.387 27.5409 100.774 22.9556 99.5538 21.8282C99.136 21.4414 98.387 22.0087 98.7587 22.4858C99.8502 23.8848 101.576 25.5827 101.983 27.3467C103.101 32.1826 98.0728 33.2076 95.072 31.3614C93.0452 30.114 91.6444 28.1171 90.0525 26.4079C89.6751 26.0025 89.1229 26.6238 89.4735 27.03C90.9375 28.7279 91.9076 30.7651 91.2816 33.011C90.2622 36.668 86.4354 36.8082 83.637 35.149C81.7754 34.0457 80.8718 31.7329 79.1171 30.7095C76.475 29.1687 72.8247 31.5637 70.9842 33.5187C70.6798 33.8419 71.0952 34.2601 71.4547 34.082C72.3284 33.6509 73.1243 33.148 73.9762 32.6831C76.2507 31.4428 77.4734 31.5 79.6038 33.115C80.518 33.808 81.1625 34.8838 82.1082 35.5913C84.0743 37.0636 86.6541 37.9195 89.0419 36.9887C93.6047 35.2102 92.6185 29.5749 90.1229 26.4917C89.9067 26.6706 89.6897 26.8503 89.4735 27.0292C91.9237 29.8295 95.7092 35.1288 100.181 33.1142C105.672 30.6402 102.036 25.0718 99.6396 21.9306C99.3748 22.1498 99.1101 22.369 98.8445 22.5881C101.041 24.664 107.978 30.5354 110.598 25.7245C113.077 21.1707 103.402 14.1847 100.534 12.1524C96.2687 9.12962 88.9731 4.37027 83.5172 6.86599C80.3698 8.30604 78.5017 11.6995 76.4839 14.3201C73.7486 17.8723 70.7875 21.2569 67.7332 24.5391C67.4773 24.8163 67.8919 25.1902 68.1623 24.9348Z" fill="white"/>
<path d="M43.2487 19.3373C40.2576 15.997 37.362 12.5577 34.6948 8.9547C32.736 6.30909 30.9563 2.94628 27.8842 1.4071C22.4914 -1.29492 15.0087 3.39917 10.6904 6.33328C7.78758 8.30519 -1.94613 15.0614 0.346201 19.6451C2.82396 24.6019 9.93416 18.8425 12.1812 16.7989C11.9204 16.5748 11.6597 16.3508 11.399 16.126C8.98111 19.1737 5.16731 24.7768 10.6443 27.2975C15.1083 29.3516 18.9359 24.1982 21.4655 21.4156C21.2525 21.2327 21.0396 21.0489 20.8266 20.866C18.2727 23.9016 17.1853 29.5176 21.7076 31.3815C24.0736 32.3566 26.6777 31.5556 28.6664 30.1155C29.6251 29.4217 30.2891 28.3628 31.2178 27.6867C33.0875 26.3248 34.4097 26.0251 36.3555 27.0702C37.3782 27.6198 38.3143 28.2734 39.3475 28.8076C39.7013 28.9906 40.1297 28.5852 39.8284 28.2532C38.0171 26.2555 34.4154 23.809 31.7506 25.2909C30.2704 26.1137 29.4016 28.0928 27.9919 29.134C26.6801 30.1953 23.123 32.1197 19.7764 28.5538C18.1618 26.4231 20.0501 22.9959 21.4655 21.4156C21.8234 21.0167 21.2849 20.3841 20.8995 20.783C19.2752 22.4616 17.8363 24.4319 15.7861 25.6406C12.7512 27.4304 7.74304 26.3111 8.95358 21.4962C9.39488 19.7402 11.1528 18.0745 12.2702 16.6965C12.6476 16.2315 11.918 15.6417 11.488 16.0236C9.67991 17.6321 7.59162 19.745 5.06609 20.011C2.84177 21.0247 0.564819 18.3275 2.69926 15.3443C3.33003 14.2564 4.96001 12.8582 5.93654 11.9404C9.43699 8.65169 13.4881 5.93275 17.8719 3.95519C20.4727 2.78268 23.3627 1.59002 26.2809 2.1799C29.2947 2.78912 31.332 6.39291 33.0389 8.63237C36.0381 12.5681 39.2786 16.2573 42.8147 19.7233C43.0787 19.9844 43.5005 19.6193 43.2487 19.3373Z" fill="white"/>
<path d="M77.0443 26.6794C77.224 22.4059 72.2871 17.3307 67.9016 16.9753C63.083 16.5845 59.2538 19.9433 56.8222 23.7501C56.1315 19.4106 52.2237 15.9994 47.9751 15.1549C43.4827 14.262 38.9968 16.5514 36.5409 20.2874C29.1158 31.5822 46.7305 42.25 54.2383 48.0578C54.4569 48.227 54.614 48.522 54.929 48.3487C64.249 43.2259 76.5212 39.0903 77.0443 26.6794Z" fill="white"/>
</svg>
